{"glyphs":{"0":{"ha":1083,"x_min":56,"x_max":1028,"o":"m 736 972 q 831 957 779 972 q 926 907 882 942 q 999 817 969 872 q 1028 681 1028 761 l 1028 292 q 1013 197 1028 247 q 963 102 997 146 q 872 29 928 58 q 736 0 817 0 l 347 0 q 252 15 303 0 q 158 65 201 31 q 85 156 114 100 q 56 292 56 211 l 56 681 q 71 775 56 724 q 121 870 86 826 q 211 943 156 914 q 347 972 267 972 l 736 972 m 833 292 l 833 292 l 833 681 q 824 728 833 710 q 801 758 815 747 q 769 774 786 769 q 736 778 751 778 l 347 778 q 299 769 318 778 q 269 745 281 760 q 254 713 258 731 q 250 681 250 696 l 250 292 q 259 244 250 263 q 282 214 268 225 q 313 199 296 203 q 347 194 331 194 l 736 194 q 784 203 765 194 q 814 227 803 213 q 829 259 825 242 q 833 292 833 276 "},"1":{"ha":500,"x_min":56,"x_max":444,"o":"m 347 972 q 417 944 389 972 q 444 875 444 917 l 444 97 q 417 28 444 56 q 347 0 389 0 q 278 28 306 0 q 250 97 250 56 l 250 778 l 153 778 q 83 806 111 778 q 56 875 56 833 q 83 944 56 917 q 153 972 111 972 l 347 972 "},"2":{"ha":1083,"x_min":56,"x_max":1028,"o":"m 347 389 q 315 385 332 389 q 283 369 297 381 q 259 340 268 358 q 250 292 250 321 l 250 194 l 931 194 q 1000 167 972 194 q 1028 97 1028 139 q 1000 28 1028 56 q 931 0 972 0 l 153 0 q 83 28 111 0 q 56 97 56 56 l 56 292 q 85 428 56 372 q 158 518 114 483 q 252 568 201 553 q 347 583 303 583 l 736 583 q 769 588 751 583 q 801 603 786 592 q 824 633 815 614 q 833 681 833 651 q 824 728 833 710 q 801 758 815 747 q 769 774 786 769 q 736 778 751 778 l 153 778 q 83 806 111 778 q 56 875 56 833 q 83 944 56 917 q 153 972 111 972 l 736 972 q 831 957 779 972 q 926 907 882 942 q 999 817 969 872 q 1028 681 1028 761 q 999 544 1028 600 q 926 454 969 489 q 831 404 882 419 q 736 389 779 389 l 347 389 "},"3":{"ha":1083,"x_min":56,"x_max":1028,"o":"m 736 972 q 831 957 779 972 q 926 907 882 942 q 999 817 969 872 q 1028 681 1028 761 q 1008 569 1028 617 q 960 486 989 521 q 1008 403 989 451 q 1028 292 1028 356 q 999 156 1028 211 q 926 65 969 100 q 831 15 882 31 q 736 0 779 0 l 153 0 q 83 28 111 0 q 56 97 56 56 q 83 167 56 139 q 153 194 111 194 l 736 194 q 769 199 751 194 q 801 214 786 203 q 824 244 815 225 q 833 292 833 263 q 824 340 833 321 q 801 369 815 358 q 769 385 786 381 q 736 389 751 389 l 542 389 q 472 417 500 389 q 444 486 444 444 q 472 556 444 528 q 542 583 500 583 l 736 583 q 770 588 753 583 q 801 603 788 592 q 824 633 815 614 q 833 681 833 651 q 824 728 833 710 q 801 758 815 747 q 769 774 786 769 q 736 778 751 778 l 153 778 q 83 806 111 778 q 56 875 56 833 q 83 944 56 917 q 153 972 111 972 l 736 972 "},"4":{"ha":1083,"x_min":56,"x_max":1028,"o":"m 931 972 q 1000 944 972 972 q 1028 875 1028 917 l 1028 97 q 1000 28 1028 56 q 931 0 972 0 q 861 28 889 0 q 833 97 833 56 l 833 389 l 153 389 q 83 417 111 389 q 56 486 56 444 l 56 875 q 83 944 56 917 q 153 972 111 972 q 222 944 194 972 q 250 875 250 917 l 250 583 l 833 583 l 833 875 q 861 944 833 917 q 931 972 889 972 "},"5":{"ha":1083,"x_min":56,"x_max":1028,"o":"m 931 778 l 250 778 l 250 681 q 254 648 250 665 q 269 616 258 631 q 299 592 281 601 q 347 583 318 583 l 736 583 q 831 568 779 583 q 926 518 882 553 q 999 428 969 483 q 1028 292 1028 372 q 999 156 1028 211 q 926 65 969 100 q 831 15 882 31 q 736 0 779 0 l 153 0 q 83 28 111 0 q 56 97 56 56 q 83 167 56 139 q 153 194 111 194 l 736 194 q 769 199 751 194 q 801 214 786 203 q 824 244 815 225 q 833 292 833 263 q 824 340 833 321 q 801 369 815 358 q 769 385 786 381 q 736 389 751 389 l 347 389 q 211 418 267 389 q 121 491 156 447 q 71 585 86 535 q 56 681 56 636 l 56 875 q 83 944 56 917 q 153 972 111 972 l 931 972 q 1000 944 972 972 q 1028 875 1028 917 q 1000 806 1028 833 q 931 778 972 778 "},"6":{"ha":1083,"x_min":56,"x_max":1028,"o":"m 347 778 q 315 774 332 778 q 283 758 297 769 q 259 728 268 747 q 250 681 250 710 l 250 583 l 736 583 q 831 568 779 583 q 926 518 882 553 q 999 428 969 483 q 1028 292 1028 372 q 999 156 1028 211 q 926 65 969 100 q 831 15 882 31 q 736 0 779 0 l 347 0 q 211 29 267 0 q 121 102 156 58 q 71 197 86 146 q 56 292 56 247 l 56 681 q 85 817 56 761 q 158 907 114 872 q 252 957 201 942 q 347 972 303 972 l 931 972 q 1000 944 972 972 q 1028 875 1028 917 q 1000 806 1028 833 q 931 778 972 778 l 347 778 m 736 389 l 250 389 l 250 292 q 254 259 250 276 q 269 227 258 242 q 299 203 281 213 q 347 194 318 194 l 736 194 q 769 199 751 194 q 801 214 786 203 q 824 244 815 225 q 833 292 833 263 q 824 340 833 321 q 801 369 815 358 q 769 385 786 381 q 736 389 751 389 "},"7":{"ha":1083,"x_min":56,"x_max":1028,"o":"m 931 972 q 977 960 954 972 q 1015 926 1000 949 q 1027 880 1026 904 q 1018 833 1028 856 l 629 56 q 572 6 610 19 q 500 10 533 -7 q 451 67 464 29 q 454 139 438 106 l 772 778 l 153 778 q 83 806 111 778 q 56 875 56 833 q 83 944 56 917 q 153 972 111 972 l 931 972 "},"8":{"ha":1083,"x_min":56,"x_max":1028,"o":"m 736 972 q 831 957 779 972 q 926 907 882 942 q 999 817 969 872 q 1028 681 1028 761 q 1008 569 1028 617 q 960 486 989 521 q 1008 403 989 451 q 1028 292 1028 356 q 999 156 1028 211 q 926 65 969 100 q 831 15 882 31 q 736 0 779 0 l 347 0 q 252 15 303 0 q 158 65 201 31 q 85 156 114 100 q 56 292 56 211 q 75 403 56 356 q 124 486 94 451 q 75 569 94 521 q 56 681 56 617 q 85 817 56 761 q 158 907 114 872 q 252 957 201 942 q 347 972 303 972 l 736 972 m 347 778 q 315 774 332 778 q 283 758 297 769 q 259 728 268 747 q 250 681 250 710 q 259 633 250 651 q 282 603 268 614 q 313 588 296 592 q 347 583 331 583 l 736 583 q 770 588 753 583 q 801 603 788 592 q 824 633 815 614 q 833 681 833 651 q 824 728 833 710 q 801 758 815 747 q 769 774 786 769 q 736 778 751 778 l 347 778 m 736 194 l 736 194 q 769 199 751 194 q 801 214 786 203 q 824 244 815 225 q 833 292 833 263 q 824 340 833 321 q 801 369 815 358 q 769 385 786 381 q 736 389 751 389 l 347 389 q 313 385 331 389 q 282 369 296 381 q 259 340 268 358 q 250 292 250 321 q 259 244 250 263 q 282 214 268 225 q 313 199 296 203 q 347 194 331 194 l 736 194 "},"9":{"ha":1083,"x_min":56,"x_max":1028,"o":"m 736 972 q 872 943 817 972 q 963 870 928 914 q 1013 775 997 826 q 1028 681 1028 724 l 1028 97 q 1000 28 1028 56 q 931 0 972 0 q 861 28 889 0 q 833 97 833 56 l 833 389 l 347 389 q 252 404 303 389 q 158 454 201 419 q 85 544 114 489 q 56 681 56 600 q 85 817 56 761 q 158 907 114 872 q 252 957 201 942 q 347 972 303 972 l 736 972 m 347 583 l 833 583 l 833 681 q 829 713 833 696 q 814 745 825 731 q 784 769 803 760 q 736 778 765 778 l 347 778 q 315 774 332 778 q 283 758 297 769 q 259 728 268 747 q 250 681 250 710 q 259 633 250 651 q 283 603 268 614 q 315 588 297 592 q 347 583 332 583 "}," ":{"ha":1083,"x_min":0,"x_max":0,"o":""},"!":{"ha":306,"x_min":56,"x_max":250,"o":"m 153 194 q 222 167 194 194 q 250 97 250 139 q 222 28 250 56 q 153 0 194 0 q 83 28 111 0 q 56 97 56 56 q 83 167 56 139 q 153 194 111 194 m 153 972 q 222 944 194 972 q 250 875 250 917 l 250 486 q 222 417 250 444 q 153 389 194 389 q 83 417 111 389 q 56 486 56 444 l 56 875 q 83 944 56 917 q 153 972 111 972 "},"\"":{"ha":694,"x_min":56,"x_max":639,"o":"m 153 972 q 222 944 194 972 q 250 875 250 917 l 250 681 q 222 611 250 639 q 153 583 194 583 q 83 611 111 583 q 56 681 56 639 l 56 875 q 83 944 56 917 q 153 972 111 972 m 542 972 q 611 944 583 972 q 639 875 639 917 l 639 681 q 611 611 639 639 q 542 583 583 583 q 472 611 500 583 q 444 681 444 639 l 444 875 q 472 944 444 917 q 542 972 500 972 "},"#":{"ha":1083,"x_min":56,"x_max":1028,"o":"m 931 583 l 833 583 l 833 389 l 931 389 q 1000 361 972 389 q 1028 292 1028 333 q 1000 222 1028 250 q 931 194 972 194 l 833 194 l 833 97 q 806 28 833 56 q 736 0 778 0 q 667 28 694 0 q 639 97 639 56 l 639 194 l 444 194 l 444 97 q 417 28 444 56 q 347 0 389 0 q 278 28 306 0 q 250 97 250 56 l 250 194 l 153 194 q 83 222 111 194 q 56 292 56 250 q 83 361 56 333 q 153 389 111 389 l 250 389 l 250 583 l 153 583 q 83 611 111 583 q 56 681 56 639 q 83 750 56 722 q 153 778 111 778 l 250 778 l 250 875 q 278 944 250 917 q 347 972 306 972 q 417 944 389 972 q 444 875 444 917 l 444 778 l 639 778 l 639 875 q 667 944 639 917 q 736 972 694 972 q 806 944 778 972 q 833 875 833 917 l 833 778 l 931 778 q 1000 750 972 778 q 1028 681 1028 722 q 1000 611 1028 639 q 931 583 972 583 m 639 389 l 639 583 l 444 583 l 444 389 l 639 389 "},"$":{"ha":1083,"x_min":56,"x_max":1028,"o":"m 931 778 l 639 778 l 639 583 l 736 583 q 831 568 779 583 q 926 518 882 553 q 999 428 969 483 q 1028 292 1028 372 q 999 156 1028 211 q 926 65 969 100 q 831 15 882 31 q 736 0 779 0 l 153 0 q 83 28 111 0 q 56 97 56 56 q 83 167 56 139 q 153 194 111 194 l 444 194 l 444 389 l 347 389 q 252 404 303 389 q 158 454 201 419 q 85 544 114 489 q 56 681 56 600 q 85 817 56 761 q 158 907 114 872 q 252 957 201 942 q 347 972 303 972 l 931 972 q 1000 944 972 972 q 1028 875 1028 917 q 1000 806 1028 833 q 931 778 972 778 m 736 389 l 639 389 l 639 194 l 736 194 q 769 199 751 194 q 801 214 786 203 q 824 244 815 225 q 833 292 833 263 q 824 340 833 321 q 801 369 815 358 q 769 385 786 381 q 736 389 751 389 m 444 583 l 444 778 l 347 778 q 315 774 332 778 q 283 758 297 769 q 259 728 268 747 q 250 681 250 710 q 259 633 250 651 q 283 603 268 614 q 315 588 297 592 q 347 583 332 583 l 444 583 "},"%":{"ha":1083,"x_min":56,"x_max":1028,"o":"m 999 943 q 1028 875 1028 914 q 999 807 1028 836 l 775 581 q 875 549 829 574 q 955 485 921 524 q 1008 397 989 446 q 1028 292 1028 347 q 1005 178 1028 231 q 942 85 982 125 q 850 23 903 46 q 736 0 797 0 q 631 19 681 0 q 543 73 582 39 q 479 153 504 107 q 447 253 454 199 l 221 29 q 153 0 192 0 q 85 29 114 0 q 56 97 56 58 q 85 165 56 136 l 308 392 q 208 424 254 399 q 128 488 163 449 q 75 576 94 526 q 56 681 56 625 q 78 794 56 742 q 141 887 101 847 q 233 949 181 926 q 347 972 286 972 q 452 953 403 972 q 540 899 501 933 q 604 819 579 865 q 636 719 629 774 l 863 943 q 931 972 892 972 q 999 943 969 972 m 250 681 q 278 611 250 639 q 347 583 306 583 q 417 611 389 583 q 444 681 444 639 q 417 750 444 722 q 347 778 389 778 q 278 750 306 778 q 250 681 250 722 m 833 292 q 806 361 833 333 q 736 389 778 389 q 667 361 694 389 q 639 292 639 333 q 667 222 639 250 q 736 194 694 194 q 806 222 778 194 q 833 292 833 250 "},"&":{"ha":1083,"x_min":56,"x_max":1028,"o":"m 347 778 q 315 774 332 778 q 283 758 297 769 q 259 728 268 747 q 250 681 250 710 q 259 633 250 651 q 283 603 268 614 q 315 588 297 592 q 347 583 332 583 l 931 583 q 1000 556 972 583 q 1028 486 1028 528 q 1000 417 1028 444 q 931 389 972 389 l 833 389 l 833 194 l 931 194 q 1000 167 972 194 q 1028 97 1028 139 q 1000 28 1028 56 q 931 0 972 0 l 347 0 q 252 15 303 0 q 158 65 201 31 q 85 156 114 100 q 56 292 56 211 q 75 403 56 356 q 124 486 94 451 q 75 569 94 521 q 56 681 56 617 q 85 817 56 761 q 158 907 114 872 q 252 957 201 942 q 347 972 303 972 l 931 972 q 1000 944 972 972 q 1028 875 1028 917 q 1000 806 1028 833 q 931 778 972 778 l 347 778 m 347 194 l 639 194 l 639 389 l 347 389 q 313 385 331 389 q 282 369 296 381 q 259 340 268 358 q 250 292 250 321 q 259 244 250 263 q 283 214 268 225 q 315 199 297 203 q 347 194 332 194 "},"'":{"ha":306,"x_min":56,"x_max":250,"o":"m 153 972 q 222 944 194 972 q 250 875 250 917 l 250 681 q 222 611 250 639 q 153 583 194 583 q 83 611 111 583 q 56 681 56 639 l 56 875 q 83 944 56 917 q 153 972 111 972 "},"(":{"ha":694,"x_min":56,"x_max":639,"o":"m 639 875 q 611 806 639 833 q 542 778 583 778 q 503 775 529 778 q 444 763 476 772 q 378 735 413 754 q 315 684 343 717 q 268 603 286 651 q 250 486 250 554 q 268 369 250 417 q 315 288 286 321 q 378 237 343 256 q 444 209 413 218 q 503 197 476 200 q 542 194 529 194 q 611 167 583 194 q 639 97 639 139 q 611 28 639 56 q 542 0 583 0 q 447 9 500 0 q 341 40 394 18 q 236 99 288 63 q 144 189 185 135 q 80 316 104 243 q 56 486 56 389 q 80 656 56 582 q 144 783 104 729 q 236 874 185 838 q 341 932 288 910 q 447 963 394 954 q 542 972 500 972 q 611 944 583 972 q 639 875 639 917 "},")":{"ha":694,"x_min":56,"x_max":639,"o":"m 153 972 q 247 963 194 972 q 353 932 300 954 q 458 874 407 910 q 550 783 510 838 q 615 656 590 729 q 639 486 639 582 q 615 317 639 390 q 550 189 590 243 q 458 99 510 135 q 353 40 407 63 q 247 9 300 18 q 153 0 194 0 q 83 28 111 0 q 56 97 56 56 q 83 167 56 139 q 153 194 111 194 q 192 197 165 194 q 250 209 218 200 q 317 237 282 218 q 380 288 351 256 q 426 369 408 321 q 444 486 444 417 q 426 603 444 554 q 380 684 408 651 q 317 735 351 717 q 250 763 282 754 q 192 775 218 772 q 153 778 165 778 q 83 806 111 778 q 56 875 56 833 q 83 944 56 917 q 153 972 111 972 "},"*":{"ha":1047,"x_min":49,"x_max":999,"o":"m 864 700 q 939 694 903 713 q 988 639 975 675 q 980 563 999 599 q 925 515 961 528 l 679 435 l 832 231 q 847 157 854 196 q 808 94 840 118 q 737 76 776 69 q 672 114 697 82 l 524 321 l 375 114 q 310 76 350 82 q 239 94 271 69 q 198 156 204 117 q 215 231 192 196 l 365 435 l 125 513 q 67 560 86 524 q 60 635 49 596 q 108 692 72 675 q 183 697 144 708 l 426 619 l 426 875 q 454 944 426 917 q 524 972 482 972 q 593 944 565 972 q 621 875 621 917 l 621 619 l 864 700 "},"+":{"ha":1083,"x_min":56,"x_max":1028,"o":"m 931 583 q 1000 556 972 583 q 1028 486 1028 528 q 1000 417 1028 444 q 931 389 972 389 l 639 389 l 639 97 q 611 28 639 56 q 542 0 583 0 q 472 28 500 0 q 444 97 444 56 l 444 389 l 153 389 q 83 417 111 389 q 56 486 56 444 q 83 556 56 528 q 153 583 111 583 l 444 583 l 444 875 q 472 944 444 917 q 542 972 500 972 q 611 944 583 972 q 639 875 639 917 l 639 583 l 931 583 "},",":{"ha":306,"x_min":56,"x_max":250,"o":"m 153 389 q 222 361 194 389 q 250 292 250 333 l 250 97 q 222 28 250 56 q 153 0 194 0 q 83 28 111 0 q 56 97 56 56 l 56 292 q 83 361 56 333 q 153 389 111 389 "},"-":{"ha":1083,"x_min":56,"x_max":1028,"o":"m 931 583 q 1000 556 972 583 q 1028 486 1028 528 q 1000 417 1028 444 q 931 389 972 389 l 153 389 q 83 417 111 389 q 56 486 56 444 q 83 556 56 528 q 153 583 111 583 l 931 583 "},".":{"ha":306,"x_min":56,"x_max":250,"o":"m 153 194 q 222 167 194 194 q 250 97 250 139 q 222 28 250 56 q 153 0 194 0 q 83 28 111 0 q 56 97 56 56 q 83 167 56 139 q 153 194 111 194 "},"/":{"ha":1083,"x_min":56,"x_max":1028,"o":"m 863 943 q 931 972 892 972 q 999 943 969 972 q 1028 875 1028 914 q 999 807 1028 836 l 221 29 q 153 0 192 0 q 85 29 114 0 q 56 97 56 58 q 85 165 56 136 l 863 943 "},":":{"ha":306,"x_min":56,"x_max":250,"o":"m 153 194 q 222 167 194 194 q 250 97 250 139 q 222 28 250 56 q 153 0 194 0 q 83 28 111 0 q 56 97 56 56 q 83 167 56 139 q 153 194 111 194 m 153 972 q 222 944 194 972 q 250 875 250 917 q 222 806 250 833 q 153 778 194 778 q 83 806 111 778 q 56 875 56 833 q 83 944 56 917 q 153 972 111 972 "},";":{"ha":306,"x_min":56,"x_max":250,"o":"m 153 389 q 222 361 194 389 q 250 292 250 333 l 250 97 q 222 28 250 56 q 153 0 194 0 q 83 28 111 0 q 56 97 56 56 l 56 292 q 83 361 56 333 q 153 389 111 389 m 153 972 q 222 944 194 972 q 250 875 250 917 q 222 806 250 833 q 153 778 194 778 q 83 806 111 778 q 56 875 56 833 q 83 944 56 917 q 153 972 111 972 "},"<":{"ha":1083,"x_min":56,"x_max":1035,"o":"m 972 788 l 369 486 l 972 185 q 1022 127 1008 165 q 1018 56 1035 89 q 960 6 999 19 q 889 10 922 -7 l 111 399 q 69 435 83 411 q 56 486 56 458 q 69 538 56 514 q 111 574 83 561 l 889 963 q 960 966 922 979 q 1018 917 999 953 q 1022 845 1035 883 q 972 788 1008 807 "},"=":{"ha":1083,"x_min":56,"x_max":1028,"o":"m 931 778 q 1000 750 972 778 q 1028 681 1028 722 q 1000 611 1028 639 q 931 583 972 583 l 153 583 q 83 611 111 583 q 56 681 56 639 q 83 750 56 722 q 153 778 111 778 l 931 778 m 931 389 q 1000 361 972 389 q 1028 292 1028 333 q 1000 222 1028 250 q 931 194 972 194 l 153 194 q 83 222 111 194 q 56 292 56 250 q 83 361 56 333 q 153 389 111 389 l 931 389 "},">":{"ha":1083,"x_min":49,"x_max":1028,"o":"m 972 574 q 1014 538 1000 561 q 1028 486 1028 514 q 1014 435 1028 458 q 972 399 1000 411 l 194 10 q 123 6 161 -7 q 65 56 85 19 q 62 127 49 89 q 111 185 75 165 l 714 486 l 111 788 q 62 845 75 807 q 65 917 49 883 q 123 966 85 953 q 194 963 161 979 l 972 574 "},"?":{"ha":1083,"x_min":56,"x_max":1028,"o":"m 736 972 q 831 957 779 972 q 926 907 882 942 q 999 817 969 872 q 1028 681 1028 761 q 999 544 1028 600 q 926 454 969 489 q 831 404 882 419 q 736 389 779 389 l 542 389 q 472 417 500 389 q 444 486 444 444 q 472 556 444 528 q 542 583 500 583 l 736 583 q 769 588 751 583 q 801 603 786 592 q 824 633 815 614 q 833 681 833 651 q 824 728 833 710 q 801 758 815 747 q 769 774 786 769 q 736 778 751 778 l 153 778 q 83 806 111 778 q 56 875 56 833 q 83 944 56 917 q 153 972 111 972 l 736 972 m 542 194 q 611 167 583 194 q 639 97 639 139 q 611 28 639 56 q 542 0 583 0 q 472 28 500 0 q 444 97 444 56 q 472 167 444 139 q 542 194 500 194 "},"@":{"ha":1083,"x_min":56,"x_max":1028,"o":"m 736 972 q 872 943 817 972 q 963 870 928 914 q 1013 775 997 826 q 1028 681 1028 724 l 1028 97 q 1000 28 1028 56 q 931 0 972 0 l 736 0 q 641 15 692 0 q 547 65 590 31 q 474 156 503 100 q 444 292 444 211 q 474 428 444 372 q 547 518 503 483 q 641 568 590 553 q 736 583 692 583 l 833 583 l 833 681 q 829 713 833 696 q 814 745 825 731 q 784 769 803 760 q 736 778 765 778 l 347 778 q 315 774 332 778 q 283 758 297 769 q 259 728 268 747 q 250 681 250 710 l 250 97 q 222 28 250 56 q 153 0 194 0 q 83 28 111 0 q 56 97 56 56 l 56 681 q 85 817 56 761 q 158 907 114 872 q 252 957 201 942 q 347 972 303 972 l 736 972 m 639 292 q 648 244 639 263 q 672 214 657 225 q 703 199 686 203 q 736 194 721 194 l 833 194 l 833 389 l 736 389 q 703 385 721 389 q 672 369 686 381 q 648 340 657 358 q 639 292 639 321 "},"A":{"ha":1083,"x_min":56,"x_max":1028,"o":"m 736 972 q 831 957 779 972 q 926 907 882 942 q 999 817 969 872 q 1028 681 1028 761 l 1028 97 q 1000 28 1028 56 q 931 0 972 0 q 861 28 889 0 q 833 97 833 56 l 833 389 l 250 389 l 250 97 q 222 28 250 56 q 153 0 194 0 q 83 28 111 0 q 56 97 56 56 l 56 681 q 71 775 56 724 q 121 870 86 826 q 211 943 156 914 q 347 972 267 972 l 736 972 m 250 583 l 833 583 l 833 681 q 824 728 833 710 q 801 758 815 747 q 769 774 786 769 q 736 778 751 778 l 347 778 q 299 769 318 778 q 269 745 281 760 q 254 713 258 731 q 250 681 250 696 l 250 583 "},"B":{"ha":1083,"x_min":56,"x_max":1028,"o":"m 736 972 q 831 957 779 972 q 926 907 882 942 q 999 817 969 872 q 1028 681 1028 761 q 1008 569 1028 617 q 960 486 989 521 q 1008 403 989 451 q 1028 292 1028 356 q 999 156 1028 211 q 926 65 969 100 q 831 15 882 31 q 736 0 779 0 l 153 0 q 83 28 111 0 q 56 97 56 56 l 56 875 q 83 944 56 917 q 153 972 111 972 l 736 972 m 833 681 q 824 728 833 710 q 801 758 815 747 q 769 774 786 769 q 736 778 751 778 l 250 778 l 250 583 l 736 583 q 770 588 753 583 q 801 603 788 592 q 824 633 815 614 q 833 681 833 651 m 736 194 q 769 199 751 194 q 801 214 786 203 q 824 244 815 225 q 833 292 833 263 q 824 340 833 321 q 801 369 815 358 q 769 385 786 381 q 736 389 751 389 l 250 389 l 250 194 l 736 194 "},"C":{"ha":1083,"x_min":56,"x_max":1028,"o":"m 347 778 q 299 769 318 778 q 269 745 281 760 q 254 713 258 731 q 250 681 250 696 l 250 292 q 259 244 250 263 q 283 214 268 225 q 315 199 297 203 q 347 194 332 194 l 931 194 q 1000 167 972 194 q 1028 97 1028 139 q 1000 28 1028 56 q 931 0 972 0 l 347 0 q 252 15 303 0 q 158 65 201 31 q 85 156 114 100 q 56 292 56 211 l 56 681 q 71 775 56 724 q 121 870 86 826 q 211 943 156 914 q 347 972 267 972 l 931 972 q 1000 944 972 972 q 1028 875 1028 917 q 1000 806 1028 833 q 931 778 972 778 l 347 778 "},"D":{"ha":1083,"x_min":56,"x_max":1028,"o":"m 542 972 q 636 963 583 972 q 742 932 689 954 q 847 874 796 910 q 939 783 899 838 q 1003 656 979 729 q 1028 486 1028 582 q 1003 317 1028 390 q 939 189 979 243 q 847 99 899 135 q 742 40 796 63 q 636 9 689 18 q 542 0 583 0 l 153 0 q 83 28 111 0 q 56 97 56 56 l 56 875 q 83 944 56 917 q 153 972 111 972 l 542 972 m 542 194 q 581 197 554 194 q 639 209 607 200 q 706 237 671 218 q 769 288 740 256 q 815 369 797 321 q 833 486 833 417 q 815 603 833 554 q 769 684 797 651 q 706 735 740 717 q 639 763 671 754 q 581 775 607 772 q 542 778 554 778 l 250 778 l 250 194 l 542 194 "},"E":{"ha":1083,"x_min":56,"x_max":1028,"o":"m 347 778 q 299 769 318 778 q 269 745 281 760 q 254 713 258 731 q 250 681 250 696 l 250 583 l 542 583 q 611 556 583 583 q 639 486 639 528 q 611 417 639 444 q 542 389 583 389 l 250 389 l 250 292 q 259 244 250 263 q 283 214 268 225 q 315 199 297 203 q 347 194 332 194 l 931 194 q 1000 167 972 194 q 1028 97 1028 139 q 1000 28 1028 56 q 931 0 972 0 l 347 0 q 252 15 303 0 q 158 65 201 31 q 85 156 114 100 q 56 292 56 211 l 56 681 q 71 775 56 724 q 121 870 86 826 q 211 943 156 914 q 347 972 267 972 l 931 972 q 1000 944 972 972 q 1028 875 1028 917 q 1000 806 1028 833 q 931 778 972 778 l 347 778 "},"F":{"ha":1083,"x_min":56,"x_max":1028,"o":"m 931 972 q 1000 944 972 972 q 1028 875 1028 917 q 1000 806 1028 833 q 931 778 972 778 l 347 778 q 299 769 318 778 q 269 745 281 760 q 254 713 258 731 q 250 681 250 696 l 250 583 l 542 583 q 611 556 583 583 q 639 486 639 528 q 611 417 639 444 q 542 389 583 389 l 250 389 l 250 97 q 222 28 250 56 q 153 0 194 0 q 83 28 111 0 q 56 97 56 56 l 56 681 q 71 775 56 724 q 121 870 86 826 q 211 943 156 914 q 347 972 267 972 l 931 972 "},"G":{"ha":1083,"x_min":56,"x_max":1028,"o":"m 347 778 q 315 774 332 778 q 283 758 297 769 q 259 728 268 747 q 250 681 250 710 l 250 292 q 254 259 250 276 q 269 227 258 242 q 299 203 281 213 q 347 194 318 194 l 736 194 q 769 199 751 194 q 801 214 786 203 q 824 244 815 225 q 833 292 833 263 l 833 389 l 542 389 q 472 417 500 389 q 444 486 444 444 q 472 556 444 528 q 542 583 500 583 l 931 583 q 1000 556 972 583 q 1028 486 1028 528 l 1028 292 q 999 156 1028 211 q 926 65 969 100 q 831 15 882 31 q 736 0 779 0 l 347 0 q 211 29 267 0 q 121 102 156 58 q 71 197 86 146 q 56 292 56 247 l 56 681 q 85 817 56 761 q 158 907 114 872 q 252 957 201 942 q 347 972 303 972 l 931 972 q 1000 944 972 972 q 1028 875 1028 917 q 1000 806 1028 833 q 931 778 972 778 l 347 778 "},"H":{"ha":1083,"x_min":56,"x_max":1028,"o":"m 931 972 q 1000 944 972 972 q 1028 875 1028 917 l 1028 97 q 1000 28 1028 56 q 931 0 972 0 q 861 28 889 0 q 833 97 833 56 l 833 389 l 250 389 l 250 97 q 222 28 250 56 q 153 0 194 0 q 83 28 111 0 q 56 97 56 56 l 56 875 q 83 944 56 917 q 153 972 111 972 q 222 944 194 972 q 250 875 250 917 l 250 583 l 833 583 l 833 875 q 861 944 833 917 q 931 972 889 972 "},"I":{"ha":1083,"x_min":56,"x_max":1028,"o":"m 931 778 l 639 778 l 639 194 l 931 194 q 1000 167 972 194 q 1028 97 1028 139 q 1000 28 1028 56 q 931 0 972 0 l 153 0 q 83 28 111 0 q 56 97 56 56 q 83 167 56 139 q 153 194 111 194 l 444 194 l 444 778 l 153 778 q 83 806 111 778 q 56 875 56 833 q 83 944 56 917 q 153 972 111 972 l 931 972 q 1000 944 972 972 q 1028 875 1028 917 q 1000 806 1028 833 q 931 778 972 778 "},"J":{"ha":1083,"x_min":56,"x_max":1028,"o":"m 931 972 q 1000 944 972 972 q 1028 875 1028 917 l 1028 292 q 999 156 1028 211 q 926 65 969 100 q 831 15 882 31 q 736 0 779 0 l 347 0 q 211 29 267 0 q 121 102 156 58 q 71 197 86 146 q 56 292 56 247 q 83 361 56 333 q 153 389 111 389 q 222 361 194 389 q 250 292 250 333 q 254 259 250 276 q 269 227 258 242 q 299 203 281 213 q 347 194 318 194 l 736 194 q 769 199 751 194 q 801 214 786 203 q 824 244 815 225 q 833 292 833 263 l 833 875 q 861 944 833 917 q 931 972 889 972 "},"K":{"ha":1083,"x_min":56,"x_max":1028,"o":"m 1028 875 q 1019 783 1028 833 q 989 679 1010 732 q 933 576 968 626 q 846 486 899 526 q 917 421 883 458 q 975 335 950 383 q 1014 228 1000 288 q 1028 97 1028 169 q 1000 28 1028 56 q 931 0 972 0 q 861 28 889 0 q 833 97 833 56 q 815 214 833 165 q 769 295 797 263 q 706 347 740 328 q 639 374 671 365 q 581 386 607 383 q 542 389 554 389 l 250 389 l 250 97 q 222 28 250 56 q 153 0 194 0 q 83 28 111 0 q 56 97 56 56 l 56 875 q 83 944 56 917 q 153 972 111 972 q 222 944 194 972 q 250 875 250 917 l 250 583 l 542 583 q 658 601 610 583 q 740 648 707 619 q 791 711 772 676 q 819 778 810 746 q 831 836 828 810 q 833 875 833 863 q 861 944 833 917 q 931 972 889 972 q 1000 944 972 972 q 1028 875 1028 917 "},"L":{"ha":1083,"x_min":56,"x_max":1028,"o":"m 931 194 q 1000 167 972 194 q 1028 97 1028 139 q 1000 28 1028 56 q 931 0 972 0 l 153 0 q 83 28 111 0 q 56 97 56 56 l 56 875 q 83 944 56 917 q 153 972 111 972 q 222 944 194 972 q 250 875 250 917 l 250 194 l 931 194 "},"M":{"ha":1083,"x_min":56,"x_max":1028,"o":"m 967 965 q 1012 929 996 954 q 1028 875 1028 904 l 1028 97 q 1000 28 1028 56 q 931 0 972 0 q 861 28 889 0 q 833 97 833 56 l 833 642 l 610 418 q 542 389 581 389 q 474 418 503 389 l 250 642 l 250 97 q 222 28 250 56 q 153 0 194 0 q 83 28 111 0 q 56 97 56 56 l 56 875 q 72 929 56 904 q 117 965 88 954 q 173 971 144 976 q 221 943 201 965 l 542 622 l 863 943 q 910 971 882 965 q 967 965 939 976 "},"N":{"ha":1083,"x_min":56,"x_max":1028,"o":"m 931 972 q 1000 944 972 972 q 1028 875 1028 917 l 1028 97 q 1012 43 1028 68 q 967 7 996 18 q 910 1 939 -4 q 863 29 882 7 l 250 642 l 250 97 q 222 28 250 56 q 153 0 194 0 q 83 28 111 0 q 56 97 56 56 l 56 875 q 72 929 56 904 q 117 965 88 954 q 173 971 144 976 q 221 943 201 965 l 833 331 l 833 875 q 861 944 833 917 q 931 972 889 972 "},"O":{"ha":1083,"x_min":56,"x_max":1028,"o":"m 736 972 q 831 957 779 972 q 926 907 882 942 q 999 817 969 872 q 1028 681 1028 761 l 1028 292 q 1013 197 1028 247 q 963 102 997 146 q 872 29 928 58 q 736 0 817 0 l 347 0 q 252 15 303 0 q 158 65 201 31 q 85 156 114 100 q 56 292 56 211 l 56 681 q 71 775 56 724 q 121 870 86 826 q 211 943 156 914 q 347 972 267 972 l 736 972 m 833 292 l 833 292 l 833 681 q 824 728 833 710 q 801 758 815 747 q 769 774 786 769 q 736 778 751 778 l 347 778 q 299 769 318 778 q 269 745 281 760 q 254 713 258 731 q 250 681 250 696 l 250 292 q 259 244 250 263 q 282 214 268 225 q 313 199 296 203 q 347 194 331 194 l 736 194 q 784 203 765 194 q 814 227 803 213 q 829 259 825 242 q 833 292 833 276 "},"P":{"ha":1083,"x_min":56,"x_max":1028,"o":"m 736 972 q 831 957 779 972 q 926 907 882 942 q 999 817 969 872 q 1028 681 1028 761 q 999 544 1028 600 q 926 454 969 489 q 831 404 882 419 q 736 389 779 389 l 250 389 l 250 97 q 222 28 250 56 q 153 0 194 0 q 83 28 111 0 q 56 97 56 56 l 56 875 q 83 944 56 917 q 153 972 111 972 l 736 972 m 736 583 q 769 588 751 583 q 801 603 786 592 q 824 633 815 614 q 833 681 833 651 q 824 728 833 710 q 801 758 815 747 q 769 774 786 769 q 736 778 751 778 l 250 778 l 250 583 l 736 583 "},"Q":{"ha":1083,"x_min":56,"x_max":1028,"o":"m 736 972 q 831 957 779 972 q 926 907 882 942 q 999 817 969 872 q 1028 681 1028 761 l 1028 292 q 1013 197 1028 247 q 963 102 997 146 q 872 29 928 58 q 736 0 817 0 l 347 0 q 252 15 303 0 q 158 65 201 31 q 85 156 114 100 q 56 292 56 211 l 56 681 q 71 775 56 724 q 121 870 86 826 q 211 943 156 914 q 347 972 267 972 l 736 972 m 833 292 l 833 292 l 833 681 q 824 728 833 710 q 801 758 815 747 q 769 774 786 769 q 736 778 751 778 l 347 778 q 299 769 318 778 q 269 745 281 760 q 254 713 258 731 q 250 681 250 696 l 250 292 q 259 244 250 263 q 282 214 268 225 q 313 199 296 203 q 347 194 331 194 l 444 194 l 444 292 q 472 361 444 333 q 542 389 500 389 q 611 361 583 389 q 639 292 639 333 l 639 194 l 736 194 q 784 203 765 194 q 814 227 803 213 q 829 259 825 242 q 833 292 833 276 "},"R":{"ha":1083,"x_min":56,"x_max":1028,"o":"m 1028 681 q 991 531 1028 590 q 901 438 954 472 q 993 298 958 381 q 1028 97 1028 215 q 1000 28 1028 56 q 931 0 972 0 q 861 28 889 0 q 833 97 833 56 q 815 214 833 165 q 769 295 797 263 q 706 347 740 328 q 639 374 671 365 q 581 386 607 383 q 542 389 554 389 l 250 389 l 250 97 q 222 28 250 56 q 153 0 194 0 q 83 28 111 0 q 56 97 56 56 l 56 875 q 83 944 56 917 q 153 972 111 972 l 736 972 q 831 957 779 972 q 926 907 882 942 q 999 817 969 872 q 1028 681 1028 761 m 250 583 l 736 583 q 769 588 751 583 q 801 603 786 592 q 824 633 815 614 q 833 681 833 651 q 824 728 833 710 q 801 758 815 747 q 769 774 786 769 q 736 778 751 778 l 250 778 l 250 583 "},"S":{"ha":1083,"x_min":56,"x_max":1028,"o":"m 347 778 q 315 774 332 778 q 283 758 297 769 q 259 728 268 747 q 250 681 250 710 q 259 633 250 651 q 283 603 268 614 q 315 588 297 592 q 347 583 332 583 l 736 583 q 831 568 779 583 q 926 518 882 553 q 999 428 969 483 q 1028 292 1028 372 q 999 156 1028 211 q 926 65 969 100 q 831 15 882 31 q 736 0 779 0 l 153 0 q 83 28 111 0 q 56 97 56 56 q 83 167 56 139 q 153 194 111 194 l 736 194 q 769 199 751 194 q 801 214 786 203 q 824 244 815 225 q 833 292 833 263 q 824 340 833 321 q 801 369 815 358 q 769 385 786 381 q 736 389 751 389 l 347 389 q 252 404 303 389 q 158 454 201 419 q 85 544 114 489 q 56 681 56 600 q 85 817 56 761 q 158 907 114 872 q 252 957 201 942 q 347 972 303 972 l 931 972 q 1000 944 972 972 q 1028 875 1028 917 q 1000 806 1028 833 q 931 778 972 778 l 347 778 "},"T":{"ha":1083,"x_min":56,"x_max":1028,"o":"m 931 972 q 1000 944 972 972 q 1028 875 1028 917 q 1000 806 1028 833 q 931 778 972 778 l 639 778 l 639 97 q 611 28 639 56 q 542 0 583 0 q 472 28 500 0 q 444 97 444 56 l 444 778 l 153 778 q 83 806 111 778 q 56 875 56 833 q 83 944 56 917 q 153 972 111 972 l 931 972 "},"U":{"ha":1083,"x_min":56,"x_max":1028,"o":"m 931 972 q 1000 944 972 972 q 1028 875 1028 917 l 1028 292 q 999 156 1028 211 q 926 65 969 100 q 831 15 882 31 q 736 0 779 0 l 347 0 q 211 29 267 0 q 121 102 156 58 q 71 197 86 146 q 56 292 56 247 l 56 875 q 83 944 56 917 q 153 972 111 972 q 222 944 194 972 q 250 875 250 917 l 250 292 q 254 259 250 276 q 269 227 258 242 q 299 203 281 213 q 347 194 318 194 l 736 194 q 769 199 751 194 q 801 214 786 203 q 824 244 815 225 q 833 292 833 263 l 833 875 q 861 944 833 917 q 931 972 889 972 "},"V":{"ha":1083,"x_min":49,"x_max":1035,"o":"m 972 963 q 1022 905 1008 943 q 1018 833 1035 867 l 629 56 q 593 14 617 28 q 542 0 569 0 q 490 14 514 0 q 454 56 467 28 l 65 833 q 62 905 49 867 q 111 963 75 943 q 183 966 144 979 q 240 917 221 953 l 542 314 l 843 917 q 901 966 863 953 q 972 963 939 979 "},"W":{"ha":1083,"x_min":56,"x_max":1028,"o":"m 931 972 q 1000 944 972 972 q 1028 875 1028 917 l 1028 97 q 1012 43 1028 68 q 967 7 996 18 q 910 1 939 -4 q 863 29 882 7 l 542 350 l 221 29 q 173 1 201 7 q 117 7 144 -4 q 72 43 88 18 q 56 97 56 68 l 56 875 q 83 944 56 917 q 153 972 111 972 q 222 944 194 972 q 250 875 250 917 l 250 331 l 474 554 q 542 583 503 583 q 610 554 581 583 l 833 331 l 833 875 q 861 944 833 917 q 931 972 889 972 "},"X":{"ha":1083,"x_min":56,"x_max":1028,"o":"m 999 943 q 1028 875 1028 914 q 999 807 1028 836 l 678 486 l 999 165 q 1028 97 1028 136 q 999 29 1028 58 q 931 0 969 0 q 863 29 892 0 l 542 350 l 221 29 q 153 0 192 0 q 85 29 114 0 q 56 97 56 58 q 85 165 56 136 l 406 486 l 85 807 q 56 875 56 836 q 85 943 56 914 q 153 972 114 972 q 221 943 192 972 l 542 622 l 863 943 q 931 972 892 972 q 999 943 969 972 "},"Y":{"ha":1083,"x_min":56,"x_max":1028,"o":"m 863 943 q 931 972 892 972 q 999 943 969 972 q 1028 875 1028 914 q 999 807 1028 836 l 639 447 l 639 97 q 611 28 639 56 q 542 0 583 0 q 472 28 500 0 q 444 97 444 56 l 444 447 l 85 807 q 56 875 56 836 q 85 943 56 914 q 153 972 114 972 q 221 943 192 972 l 542 622 l 863 943 "},"Z":{"ha":1083,"x_min":51,"x_max":1032,"o":"m 931 194 q 1000 167 972 194 q 1028 97 1028 139 q 1000 28 1028 56 q 931 0 972 0 l 153 0 q 99 16 124 0 q 63 61 74 32 q 57 117 51 89 q 85 165 63 146 l 697 778 l 153 778 q 83 806 111 778 q 56 875 56 833 q 83 944 56 917 q 153 972 111 972 l 931 972 q 985 956 960 972 q 1021 911 1010 940 q 1026 855 1032 883 q 999 807 1021 826 l 386 194 l 931 194 "},"[":{"ha":694,"x_min":56,"x_max":639,"o":"m 542 778 l 250 778 l 250 194 l 542 194 q 611 167 583 194 q 639 97 639 139 q 611 28 639 56 q 542 0 583 0 l 153 0 q 83 28 111 0 q 56 97 56 56 l 56 875 q 83 944 56 917 q 153 972 111 972 l 542 972 q 611 944 583 972 q 639 875 639 917 q 611 806 639 833 q 542 778 583 778 "},"\\":{"ha":1083,"x_min":56,"x_max":1028,"o":"m 221 943 l 999 165 q 1028 97 1028 136 q 999 29 1028 58 q 931 0 969 0 q 863 29 892 0 l 85 807 q 56 875 56 836 q 85 943 56 914 q 153 972 114 972 q 221 943 192 972 "},"]":{"ha":694,"x_min":56,"x_max":639,"o":"m 542 972 q 611 944 583 972 q 639 875 639 917 l 639 97 q 611 28 639 56 q 542 0 583 0 l 153 0 q 83 28 111 0 q 56 97 56 56 q 83 167 56 139 q 153 194 111 194 l 444 194 l 444 778 l 153 778 q 83 806 111 778 q 56 875 56 833 q 83 944 56 917 q 153 972 111 972 l 542 972 "},"^":{"ha":694,"x_min":56,"x_max":639,"o":"m 415 943 l 610 749 q 639 681 639 719 q 610 613 639 642 q 542 583 581 583 q 474 613 503 583 l 347 739 l 221 613 q 153 583 192 583 q 85 613 114 583 q 56 681 56 642 q 85 749 56 719 l 279 943 q 347 972 308 972 q 415 943 386 972 "},"_":{"ha":1083,"x_min":56,"x_max":1028,"o":"m 931 194 q 1000 167 972 194 q 1028 97 1028 139 q 1000 28 1028 56 q 931 0 972 0 l 153 0 q 83 28 111 0 q 56 97 56 56 q 83 167 56 139 q 153 194 111 194 l 931 194 "},"`":{"ha":306,"x_min":56,"x_max":250,"o":"m 153 972 q 222 944 194 972 q 250 875 250 917 l 250 681 q 222 611 250 639 q 153 583 194 583 q 83 611 111 583 q 56 681 56 639 l 56 875 q 83 944 56 917 q 153 972 111 972 "},"a":{"ha":1083,"x_min":56,"x_max":1028,"o":"m 736 972 q 831 957 779 972 q 926 907 882 942 q 999 817 969 872 q 1028 681 1028 761 l 1028 97 q 1000 28 1028 56 q 931 0 972 0 q 861 28 889 0 q 833 97 833 56 l 833 389 l 250 389 l 250 97 q 222 28 250 56 q 153 0 194 0 q 83 28 111 0 q 56 97 56 56 l 56 681 q 71 775 56 724 q 121 870 86 826 q 211 943 156 914 q 347 972 267 972 l 736 972 m 250 583 l 833 583 l 833 681 q 824 728 833 710 q 801 758 815 747 q 769 774 786 769 q 736 778 751 778 l 347 778 q 299 769 318 778 q 269 745 281 760 q 254 713 258 731 q 250 681 250 696 l 250 583 "},"b":{"ha":1083,"x_min":56,"x_max":1028,"o":"m 736 972 q 831 957 779 972 q 926 907 882 942 q 999 817 969 872 q 1028 681 1028 761 q 1008 569 1028 617 q 960 486 989 521 q 1008 403 989 451 q 1028 292 1028 356 q 999 156 1028 211 q 926 65 969 100 q 831 15 882 31 q 736 0 779 0 l 153 0 q 83 28 111 0 q 56 97 56 56 l 56 875 q 83 944 56 917 q 153 972 111 972 l 736 972 m 833 681 q 824 728 833 710 q 801 758 815 747 q 769 774 786 769 q 736 778 751 778 l 250 778 l 250 583 l 736 583 q 770 588 753 583 q 801 603 788 592 q 824 633 815 614 q 833 681 833 651 m 736 194 q 769 199 751 194 q 801 214 786 203 q 824 244 815 225 q 833 292 833 263 q 824 340 833 321 q 801 369 815 358 q 769 385 786 381 q 736 389 751 389 l 250 389 l 250 194 l 736 194 "},"c":{"ha":1083,"x_min":56,"x_max":1028,"o":"m 347 778 q 299 769 318 778 q 269 745 281 760 q 254 713 258 731 q 250 681 250 696 l 250 292 q 259 244 250 263 q 283 214 268 225 q 315 199 297 203 q 347 194 332 194 l 736 194 q 784 203 765 194 q 814 227 803 213 q 829 259 825 242 q 833 292 833 276 q 861 361 833 333 q 931 389 889 389 q 1000 361 972 389 q 1028 292 1028 333 q 1013 197 1028 247 q 963 102 997 146 q 872 29 928 58 q 736 0 817 0 l 347 0 q 252 15 303 0 q 158 65 201 31 q 85 156 114 100 q 56 292 56 211 l 56 681 q 71 775 56 724 q 121 870 86 826 q 211 943 156 914 q 347 972 267 972 l 736 972 q 831 957 779 972 q 926 907 882 942 q 999 817 969 872 q 1028 681 1028 761 q 1000 611 1028 639 q 931 583 972 583 q 861 611 889 583 q 833 681 833 639 q 824 728 833 710 q 801 758 815 747 q 769 774 786 769 q 736 778 751 778 l 347 778 "},"d":{"ha":1083,"x_min":56,"x_max":1028,"o":"m 542 972 q 636 963 583 972 q 742 932 689 954 q 847 874 796 910 q 939 783 899 838 q 1003 656 979 729 q 1028 486 1028 582 q 1003 317 1028 390 q 939 189 979 243 q 847 99 899 135 q 742 40 796 63 q 636 9 689 18 q 542 0 583 0 l 153 0 q 83 28 111 0 q 56 97 56 56 l 56 875 q 83 944 56 917 q 153 972 111 972 l 542 972 m 542 194 q 581 197 554 194 q 639 209 607 200 q 706 237 671 218 q 769 288 740 256 q 815 369 797 321 q 833 486 833 417 q 815 603 833 554 q 769 684 797 651 q 706 735 740 717 q 639 763 671 754 q 581 775 607 772 q 542 778 554 778 l 250 778 l 250 194 l 542 194 "},"e":{"ha":1083,"x_min":56,"x_max":1028,"o":"m 347 778 q 299 769 318 778 q 269 745 281 760 q 254 713 258 731 q 250 681 250 696 l 250 583 l 542 583 q 611 556 583 583 q 639 486 639 528 q 611 417 639 444 q 542 389 583 389 l 250 389 l 250 292 q 259 244 250 263 q 283 214 268 225 q 315 199 297 203 q 347 194 332 194 l 736 194 q 784 203 765 194 q 814 227 803 213 q 829 259 825 242 q 833 292 833 276 q 861 361 833 333 q 931 389 889 389 q 1000 361 972 389 q 1028 292 1028 333 q 1013 197 1028 247 q 963 102 997 146 q 872 29 928 58 q 736 0 817 0 l 347 0 q 252 15 303 0 q 158 65 201 31 q 85 156 114 100 q 56 292 56 211 l 56 681 q 71 775 56 724 q 121 870 86 826 q 211 943 156 914 q 347 972 267 972 l 736 972 q 831 957 779 972 q 926 907 882 942 q 999 817 969 872 q 1028 681 1028 761 q 1000 611 1028 639 q 931 583 972 583 q 861 611 889 583 q 833 681 833 639 q 824 728 833 710 q 801 758 815 747 q 769 774 786 769 q 736 778 751 778 l 347 778 "},"f":{"ha":1083,"x_min":56,"x_max":1028,"o":"m 736 972 q 831 957 779 972 q 926 907 882 942 q 999 817 969 872 q 1028 681 1028 761 q 1000 611 1028 639 q 931 583 972 583 q 861 611 889 583 q 833 681 833 639 q 824 728 833 710 q 801 758 815 747 q 769 774 786 769 q 736 778 751 778 l 347 778 q 299 769 318 778 q 269 745 281 760 q 254 713 258 731 q 250 681 250 696 l 250 583 l 542 583 q 611 556 583 583 q 639 486 639 528 q 611 417 639 444 q 542 389 583 389 l 250 389 l 250 97 q 222 28 250 56 q 153 0 194 0 q 83 28 111 0 q 56 97 56 56 l 56 681 q 71 775 56 724 q 121 870 86 826 q 211 943 156 914 q 347 972 267 972 l 736 972 "},"g":{"ha":1083,"x_min":56,"x_max":1028,"o":"m 347 778 q 315 774 332 778 q 283 758 297 769 q 259 728 268 747 q 250 681 250 710 l 250 292 q 254 259 250 276 q 269 227 258 242 q 299 203 281 213 q 347 194 318 194 l 736 194 q 769 199 751 194 q 801 214 786 203 q 824 244 815 225 q 833 292 833 263 l 833 389 l 542 389 q 472 417 500 389 q 444 486 444 444 q 472 556 444 528 q 542 583 500 583 l 931 583 q 1000 556 972 583 q 1028 486 1028 528 l 1028 292 q 999 156 1028 211 q 926 65 969 100 q 831 15 882 31 q 736 0 779 0 l 347 0 q 211 29 267 0 q 121 102 156 58 q 71 197 86 146 q 56 292 56 247 l 56 681 q 85 817 56 761 q 158 907 114 872 q 252 957 201 942 q 347 972 303 972 l 931 972 q 1000 944 972 972 q 1028 875 1028 917 q 1000 806 1028 833 q 931 778 972 778 l 347 778 "},"h":{"ha":1083,"x_min":56,"x_max":1028,"o":"m 931 972 q 1000 944 972 972 q 1028 875 1028 917 l 1028 97 q 1000 28 1028 56 q 931 0 972 0 q 861 28 889 0 q 833 97 833 56 l 833 389 l 250 389 l 250 97 q 222 28 250 56 q 153 0 194 0 q 83 28 111 0 q 56 97 56 56 l 56 875 q 83 944 56 917 q 153 972 111 972 q 222 944 194 972 q 250 875 250 917 l 250 583 l 833 583 l 833 875 q 861 944 833 917 q 931 972 889 972 "},"i":{"ha":1083,"x_min":56,"x_max":1028,"o":"m 931 778 l 639 778 l 639 194 l 931 194 q 1000 167 972 194 q 1028 97 1028 139 q 1000 28 1028 56 q 931 0 972 0 l 153 0 q 83 28 111 0 q 56 97 56 56 q 83 167 56 139 q 153 194 111 194 l 444 194 l 444 778 l 153 778 q 83 806 111 778 q 56 875 56 833 q 83 944 56 917 q 153 972 111 972 l 931 972 q 1000 944 972 972 q 1028 875 1028 917 q 1000 806 1028 833 q 931 778 972 778 "},"j":{"ha":1083,"x_min":56,"x_max":1028,"o":"m 931 972 q 1000 944 972 972 q 1028 875 1028 917 l 1028 292 q 999 156 1028 211 q 926 65 969 100 q 831 15 882 31 q 736 0 779 0 l 347 0 q 211 29 267 0 q 121 102 156 58 q 71 197 86 146 q 56 292 56 247 q 83 361 56 333 q 153 389 111 389 q 222 361 194 389 q 250 292 250 333 q 254 259 250 276 q 269 227 258 242 q 299 203 281 213 q 347 194 318 194 l 736 194 q 769 199 751 194 q 801 214 786 203 q 824 244 815 225 q 833 292 833 263 l 833 875 q 861 944 833 917 q 931 972 889 972 "},"k":{"ha":1083,"x_min":56,"x_max":1028,"o":"m 1028 875 q 1019 783 1028 833 q 989 679 1010 732 q 933 576 968 626 q 846 486 899 526 q 917 421 883 458 q 975 335 950 383 q 1014 228 1000 288 q 1028 97 1028 169 q 1000 28 1028 56 q 931 0 972 0 q 861 28 889 0 q 833 97 833 56 q 815 214 833 165 q 769 295 797 263 q 706 347 740 328 q 639 374 671 365 q 581 386 607 383 q 542 389 554 389 l 250 389 l 250 97 q 222 28 250 56 q 153 0 194 0 q 83 28 111 0 q 56 97 56 56 l 56 875 q 83 944 56 917 q 153 972 111 972 q 222 944 194 972 q 250 875 250 917 l 250 583 l 542 583 q 658 601 610 583 q 740 648 707 619 q 791 711 772 676 q 819 778 810 746 q 831 836 828 810 q 833 875 833 863 q 861 944 833 917 q 931 972 889 972 q 1000 944 972 972 q 1028 875 1028 917 "},"l":{"ha":1083,"x_min":56,"x_max":1028,"o":"m 931 194 q 1000 167 972 194 q 1028 97 1028 139 q 1000 28 1028 56 q 931 0 972 0 l 347 0 q 211 29 267 0 q 121 102 156 58 q 71 197 86 146 q 56 292 56 247 l 56 875 q 83 944 56 917 q 153 972 111 972 q 222 944 194 972 q 250 875 250 917 l 250 292 q 254 259 250 276 q 269 227 258 242 q 299 203 281 213 q 347 194 318 194 l 931 194 "},"m":{"ha":1083,"x_min":56,"x_max":1028,"o":"m 736 972 q 831 957 779 972 q 926 907 882 942 q 999 817 969 872 q 1028 681 1028 761 l 1028 97 q 1000 28 1028 56 q 931 0 972 0 q 861 28 889 0 q 833 97 833 56 l 833 681 q 824 728 833 710 q 801 758 815 747 q 769 774 786 769 q 736 778 751 778 l 639 778 l 639 486 q 611 417 639 444 q 542 389 583 389 q 472 417 500 389 q 444 486 444 444 l 444 778 l 347 778 q 299 769 318 778 q 269 745 281 760 q 254 713 258 731 q 250 681 250 696 l 250 97 q 222 28 250 56 q 153 0 194 0 q 83 28 111 0 q 56 97 56 56 l 56 681 q 71 775 56 724 q 121 870 86 826 q 211 943 156 914 q 347 972 267 972 l 736 972 "},"n":{"ha":1083,"x_min":56,"x_max":1028,"o":"m 736 972 q 831 957 779 972 q 926 907 882 942 q 999 817 969 872 q 1028 681 1028 761 l 1028 97 q 1000 28 1028 56 q 931 0 972 0 q 861 28 889 0 q 833 97 833 56 l 833 681 q 824 728 833 710 q 801 758 815 747 q 769 774 786 769 q 736 778 751 778 l 347 778 q 299 769 318 778 q 269 745 281 760 q 254 713 258 731 q 250 681 250 696 l 250 97 q 222 28 250 56 q 153 0 194 0 q 83 28 111 0 q 56 97 56 56 l 56 681 q 71 775 56 724 q 121 870 86 826 q 211 943 156 914 q 347 972 267 972 l 736 972 "},"o":{"ha":1083,"x_min":56,"x_max":1028,"o":"m 736 972 q 831 957 779 972 q 926 907 882 942 q 999 817 969 872 q 1028 681 1028 761 l 1028 292 q 1013 197 1028 247 q 963 102 997 146 q 872 29 928 58 q 736 0 817 0 l 347 0 q 252 15 303 0 q 158 65 201 31 q 85 156 114 100 q 56 292 56 211 l 56 681 q 71 775 56 724 q 121 870 86 826 q 211 943 156 914 q 347 972 267 972 l 736 972 m 833 292 l 833 292 l 833 681 q 824 728 833 710 q 801 758 815 747 q 769 774 786 769 q 736 778 751 778 l 347 778 q 299 769 318 778 q 269 745 281 760 q 254 713 258 731 q 250 681 250 696 l 250 292 q 259 244 250 263 q 282 214 268 225 q 313 199 296 203 q 347 194 331 194 l 736 194 q 784 203 765 194 q 814 227 803 213 q 829 259 825 242 q 833 292 833 276 "},"p":{"ha":1083,"x_min":56,"x_max":1028,"o":"m 736 972 q 831 957 779 972 q 926 907 882 942 q 999 817 969 872 q 1028 681 1028 761 q 999 544 1028 600 q 926 454 969 489 q 831 404 882 419 q 736 389 779 389 l 250 389 l 250 97 q 222 28 250 56 q 153 0 194 0 q 83 28 111 0 q 56 97 56 56 l 56 875 q 83 944 56 917 q 153 972 111 972 l 736 972 m 736 583 q 769 588 751 583 q 801 603 786 592 q 824 633 815 614 q 833 681 833 651 q 824 728 833 710 q 801 758 815 747 q 769 774 786 769 q 736 778 751 778 l 250 778 l 250 583 l 736 583 "},"q":{"ha":1083,"x_min":56,"x_max":1028,"o":"m 736 972 q 831 957 779 972 q 926 907 882 942 q 999 817 969 872 q 1028 681 1028 761 l 1028 292 q 1013 197 1028 247 q 963 102 997 146 q 872 29 928 58 q 736 0 817 0 l 347 0 q 252 15 303 0 q 158 65 201 31 q 85 156 114 100 q 56 292 56 211 l 56 681 q 71 775 56 724 q 121 870 86 826 q 211 943 156 914 q 347 972 267 972 l 736 972 m 833 292 l 833 292 l 833 681 q 824 728 833 710 q 801 758 815 747 q 769 774 786 769 q 736 778 751 778 l 347 778 q 299 769 318 778 q 269 745 281 760 q 254 713 258 731 q 250 681 250 696 l 250 292 q 259 244 250 263 q 282 214 268 225 q 313 199 296 203 q 347 194 331 194 l 444 194 l 444 292 q 472 361 444 333 q 542 389 500 389 q 611 361 583 389 q 639 292 639 333 l 639 194 l 736 194 q 784 203 765 194 q 814 227 803 213 q 829 259 825 242 q 833 292 833 276 "},"r":{"ha":1083,"x_min":56,"x_max":1028,"o":"m 1028 681 q 991 531 1028 590 q 901 438 954 472 q 993 298 958 381 q 1028 97 1028 215 q 1000 28 1028 56 q 931 0 972 0 q 861 28 889 0 q 833 97 833 56 q 815 214 833 165 q 769 295 797 263 q 706 347 740 328 q 639 374 671 365 q 581 386 607 383 q 542 389 554 389 l 250 389 l 250 97 q 222 28 250 56 q 153 0 194 0 q 83 28 111 0 q 56 97 56 56 l 56 875 q 83 944 56 917 q 153 972 111 972 l 736 972 q 831 957 779 972 q 926 907 882 942 q 999 817 969 872 q 1028 681 1028 761 m 250 583 l 736 583 q 769 588 751 583 q 801 603 786 592 q 824 633 815 614 q 833 681 833 651 q 824 728 833 710 q 801 758 815 747 q 769 774 786 769 q 736 778 751 778 l 250 778 l 250 583 "},"s":{"ha":1083,"x_min":56,"x_max":1028,"o":"m 347 778 q 315 774 332 778 q 283 758 297 769 q 259 728 268 747 q 250 681 250 710 q 259 633 250 651 q 283 603 268 614 q 315 588 297 592 q 347 583 332 583 l 736 583 q 831 568 779 583 q 926 518 882 553 q 999 428 969 483 q 1028 292 1028 372 q 999 156 1028 211 q 926 65 969 100 q 831 15 882 31 q 736 0 779 0 l 153 0 q 83 28 111 0 q 56 97 56 56 q 83 167 56 139 q 153 194 111 194 l 736 194 q 769 199 751 194 q 801 214 786 203 q 824 244 815 225 q 833 292 833 263 q 824 340 833 321 q 801 369 815 358 q 769 385 786 381 q 736 389 751 389 l 347 389 q 252 404 303 389 q 158 454 201 419 q 85 544 114 489 q 56 681 56 600 q 85 817 56 761 q 158 907 114 872 q 252 957 201 942 q 347 972 303 972 l 931 972 q 1000 944 972 972 q 1028 875 1028 917 q 1000 806 1028 833 q 931 778 972 778 l 347 778 "},"t":{"ha":1083,"x_min":56,"x_max":1028,"o":"m 931 972 q 1000 944 972 972 q 1028 875 1028 917 q 1000 806 1028 833 q 931 778 972 778 l 639 778 l 639 97 q 611 28 639 56 q 542 0 583 0 q 472 28 500 0 q 444 97 444 56 l 444 778 l 153 778 q 83 806 111 778 q 56 875 56 833 q 83 944 56 917 q 153 972 111 972 l 931 972 "},"u":{"ha":1083,"x_min":56,"x_max":1028,"o":"m 931 972 q 1000 944 972 972 q 1028 875 1028 917 l 1028 292 q 999 156 1028 211 q 926 65 969 100 q 831 15 882 31 q 736 0 779 0 l 347 0 q 211 29 267 0 q 121 102 156 58 q 71 197 86 146 q 56 292 56 247 l 56 875 q 83 944 56 917 q 153 972 111 972 q 222 944 194 972 q 250 875 250 917 l 250 292 q 254 259 250 276 q 269 227 258 242 q 299 203 281 213 q 347 194 318 194 l 736 194 q 769 199 751 194 q 801 214 786 203 q 824 244 815 225 q 833 292 833 263 l 833 875 q 861 944 833 917 q 931 972 889 972 "},"v":{"ha":1083,"x_min":49,"x_max":1035,"o":"m 972 963 q 1022 905 1008 943 q 1018 833 1035 867 l 629 56 q 593 14 617 28 q 542 0 569 0 q 490 14 514 0 q 454 56 467 28 l 65 833 q 62 905 49 867 q 111 963 75 943 q 183 966 144 979 q 240 917 221 953 l 542 314 l 843 917 q 901 966 863 953 q 972 963 939 979 "},"w":{"ha":1083,"x_min":56,"x_max":1028,"o":"m 931 972 q 1000 944 972 972 q 1028 875 1028 917 l 1028 292 q 999 156 1028 211 q 926 65 969 100 q 831 15 882 31 q 736 0 779 0 l 347 0 q 211 29 267 0 q 121 102 156 58 q 71 197 86 146 q 56 292 56 247 l 56 875 q 83 944 56 917 q 153 972 111 972 q 222 944 194 972 q 250 875 250 917 l 250 292 q 254 259 250 276 q 269 227 258 242 q 299 203 281 213 q 347 194 318 194 l 444 194 l 444 486 q 472 556 444 528 q 542 583 500 583 q 611 556 583 583 q 639 486 639 528 l 639 194 l 736 194 q 769 199 751 194 q 801 214 786 203 q 824 244 815 225 q 833 292 833 263 l 833 875 q 861 944 833 917 q 931 972 889 972 "},"x":{"ha":1083,"x_min":56,"x_max":1028,"o":"m 999 943 q 1028 875 1028 914 q 999 807 1028 836 l 678 486 l 999 165 q 1028 97 1028 136 q 999 29 1028 58 q 931 0 969 0 q 863 29 892 0 l 542 350 l 221 29 q 153 0 192 0 q 85 29 114 0 q 56 97 56 58 q 85 165 56 136 l 406 486 l 85 807 q 56 875 56 836 q 85 943 56 914 q 153 972 114 972 q 221 943 192 972 l 542 622 l 863 943 q 931 972 892 972 q 999 943 969 972 "},"y":{"ha":1083,"x_min":56,"x_max":1028,"o":"m 931 972 q 1000 944 972 972 q 1028 875 1028 917 l 1028 681 q 999 544 1028 600 q 926 454 969 489 q 831 404 882 419 q 736 389 779 389 l 639 389 l 639 97 q 611 28 639 56 q 542 0 583 0 q 472 28 500 0 q 444 97 444 56 l 444 389 l 347 389 q 211 418 267 389 q 121 491 156 447 q 71 585 86 535 q 56 681 56 636 l 56 875 q 83 944 56 917 q 153 972 111 972 q 222 944 194 972 q 250 875 250 917 l 250 681 q 254 648 250 665 q 269 616 258 631 q 299 592 281 601 q 347 583 318 583 l 736 583 q 769 588 751 583 q 801 603 786 592 q 824 633 815 614 q 833 681 833 651 l 833 875 q 861 944 833 917 q 931 972 889 972 "},"z":{"ha":1083,"x_min":51,"x_max":1032,"o":"m 931 194 q 1000 167 972 194 q 1028 97 1028 139 q 1000 28 1028 56 q 931 0 972 0 l 153 0 q 99 16 124 0 q 63 61 74 32 q 57 117 51 89 q 85 165 63 146 l 697 778 l 153 778 q 83 806 111 778 q 56 875 56 833 q 83 944 56 917 q 153 972 111 972 l 931 972 q 985 956 960 972 q 1021 911 1010 940 q 1026 855 1032 883 q 999 807 1021 826 l 386 194 l 931 194 "},"{":{"ha":889,"x_min":56,"x_max":833,"o":"m 833 875 q 806 806 833 833 q 736 778 778 778 q 697 775 724 778 q 639 763 671 772 q 572 735 607 754 q 509 684 538 717 q 463 603 481 651 q 444 486 444 554 q 463 369 444 417 q 509 288 481 321 q 572 237 538 256 q 639 209 607 218 q 697 197 671 200 q 736 194 724 194 q 806 167 778 194 q 833 97 833 139 q 806 28 833 56 q 736 0 778 0 q 603 18 679 0 q 457 81 528 36 q 331 200 386 125 q 257 389 275 275 l 153 389 q 83 417 111 389 q 56 486 56 444 q 83 556 56 528 q 153 583 111 583 l 257 583 q 331 772 275 697 q 457 892 386 847 q 603 954 528 936 q 736 972 679 972 q 806 944 778 972 q 833 875 833 917 "},"|":{"ha":306,"x_min":56,"x_max":250,"o":"m 153 972 q 222 944 194 972 q 250 875 250 917 l 250 97 q 222 28 250 56 q 153 0 194 0 q 83 28 111 0 q 56 97 56 56 l 56 875 q 83 944 56 917 q 153 972 111 972 "},"}":{"ha":889,"x_min":56,"x_max":833,"o":"m 736 583 q 806 556 778 583 q 833 486 833 528 q 806 417 833 444 q 736 389 778 389 l 632 389 q 558 200 614 275 q 432 81 503 125 q 285 18 361 36 q 153 0 210 0 q 83 28 111 0 q 56 97 56 56 q 83 167 56 139 q 153 194 111 194 q 192 197 165 194 q 250 209 218 200 q 317 237 282 218 q 380 288 351 256 q 426 369 408 321 q 444 486 444 417 q 426 603 444 554 q 380 684 408 651 q 317 735 351 717 q 250 763 282 754 q 192 775 218 772 q 153 778 165 778 q 83 806 111 778 q 56 875 56 833 q 83 944 56 917 q 153 972 111 972 q 285 954 210 972 q 432 892 361 936 q 558 772 503 847 q 632 583 614 697 l 736 583 "},"~":{"ha":1083,"x_min":56,"x_max":1028,"o":"m 931 583 q 1000 556 972 583 q 1028 486 1028 528 q 1013 391 1028 442 q 963 297 997 340 q 872 224 928 253 q 736 194 817 194 q 600 224 656 194 q 510 297 544 253 q 460 391 475 340 q 444 486 444 442 q 440 519 444 501 q 425 551 436 536 q 395 574 414 565 q 347 583 376 583 q 299 574 318 583 q 269 551 281 565 q 254 519 258 536 q 250 486 250 501 q 222 417 250 444 q 153 389 194 389 q 83 417 111 389 q 56 486 56 444 q 71 581 56 529 q 121 676 86 632 q 211 749 156 719 q 347 778 267 778 q 483 749 428 778 q 574 676 539 719 q 624 581 608 632 q 639 486 639 529 q 643 453 639 471 q 658 422 647 436 q 688 398 669 407 q 736 389 707 389 q 784 398 765 389 q 814 422 803 407 q 829 453 825 436 q 833 486 833 471 q 861 556 833 528 q 931 583 889 583 "},"":{"ha":1083,"x_min":56,"x_max":1028,"o":"m 56 -139 l 56 972 l 1028 972 l 1028 -139 l 56 -139 "},"":{"ha":1083,"x_min":56,"x_max":1028,"o":"m 931 194 q 1000 167 972 194 q 1028 97 1028 139 q 1000 28 1028 56 q 931 0 972 0 l 736 0 q 600 29 656 0 q 510 102 544 58 q 460 197 475 146 q 444 292 444 247 l 444 389 l 250 389 l 250 97 q 222 28 250 56 q 153 0 194 0 q 83 28 111 0 q 56 97 56 56 l 56 681 q 71 775 56 724 q 121 870 86 826 q 211 943 156 914 q 347 972 267 972 l 931 972 q 1000 944 972 972 q 1028 875 1028 917 q 1000 806 1028 833 q 931 778 972 778 l 639 778 l 639 583 l 736 583 q 806 556 778 583 q 833 486 833 528 q 806 417 833 444 q 736 389 778 389 l 639 389 l 639 292 q 643 259 639 276 q 658 227 647 242 q 688 203 669 213 q 736 194 707 194 l 931 194 m 250 583 l 444 583 l 444 778 l 347 778 q 299 769 318 778 q 269 745 281 760 q 254 713 258 731 q 250 681 250 696 l 250 583 "},"":{"ha":1083,"x_min":56,"x_max":1028,"o":"m 931 194 q 1000 167 972 194 q 1028 97 1028 139 q 1000 28 1028 56 q 931 0 972 0 l 736 0 q 600 29 656 0 q 510 102 544 58 q 460 197 475 146 q 444 292 444 247 l 444 389 l 250 389 l 250 97 q 222 28 250 56 q 153 0 194 0 q 83 28 111 0 q 56 97 56 56 l 56 681 q 71 775 56 724 q 121 870 86 826 q 211 943 156 914 q 347 972 267 972 l 931 972 q 1000 944 972 972 q 1028 875 1028 917 q 1000 806 1028 833 q 931 778 972 778 l 639 778 l 639 583 l 736 583 q 806 556 778 583 q 833 486 833 528 q 806 417 833 444 q 736 389 778 389 l 639 389 l 639 292 q 643 259 639 276 q 658 227 647 242 q 688 203 669 213 q 736 194 707 194 l 931 194 m 250 583 l 444 583 l 444 778 l 347 778 q 299 769 318 778 q 269 745 281 760 q 254 713 258 731 q 250 681 250 696 l 250 583 "},"":{"ha":0,"x_min":0,"x_max":0,"o":""},"":{"ha":694,"x_min":0,"x_max":0,"o":""}}}
